<svg xmlns="http://www.w3.org/2000/svg" xmlns:xlink="http://www.w3.org/1999/xlink" width="500" zoomAndPan="magnify" viewBox="0 0 375 101.04" height="125" preserveAspectRatio="xMidYMid meet" version="1.0"><defs><g/><clipPath id="522463655b"><path d="M 1.765625 1 L 373.234375 1 L 373.234375 92 L 1.765625 92 Z M 1.765625 1 " clip-rule="nonzero"/></clipPath><clipPath id="32611f6741"><path d="M 0.765625 1 L 76.53125 1 L 76.53125 89.976562 L 0.765625 89.976562 Z M 0.765625 1 " clip-rule="nonzero"/></clipPath><clipPath id="40a129e1be"><path d="M 94 19 L 372.234375 19 L 372.234375 71 L 94 71 Z M 94 19 " clip-rule="nonzero"/></clipPath><clipPath id="e5be68ef39"><rect x="0" width="279" y="0" height="52"/></clipPath><clipPath id="a445cbf4d9"><rect x="0" width="373" y="0" height="91"/></clipPath></defs><g clip-path="url(#522463655b)"><g transform="matrix(1, 0, 0, 1, 1, 1)"><g clip-path="url(#a445cbf4d9)"><g clip-path="url(#32611f6741)"><path fill="#00bf63" d="M 76.566406 31.609375 L 76.566406 64.046875 L 40.894531 89.796875 L 40.894531 57.359375 Z M 0.765625 64.046875 L 36.4375 89.796875 L 36.4375 57.359375 L 0.765625 31.609375 Z M 18.601562 15.558594 L 2.324219 27.261719 L 38.664062 53.457031 L 54.941406 41.753906 Z M 75.003906 27.261719 L 38.664062 1.066406 L 22.390625 12.769531 L 58.730469 38.964844 Z M 75.003906 27.261719 " fill-opacity="1" fill-rule="nonzero"/></g><g clip-path="url(#40a129e1be)"><g transform="matrix(1, 0, 0, 1, 94, 19)"><g clip-path="url(#e5be68ef39)"><g fill="#121212" fill-opacity="1"><g transform="translate(0.987211, 38.122804)"><g><path d="M 19.96875 -35.609375 C 22.675781 -35.609375 25.078125 -35.125 27.171875 -34.15625 C 29.265625 -33.195312 30.945312 -31.863281 32.21875 -30.15625 L 28.640625 -27.5625 C 27.597656 -28.96875 26.304688 -30.019531 24.765625 -30.71875 C 23.234375 -31.425781 21.632812 -31.78125 19.96875 -31.78125 C 16.269531 -31.78125 13.148438 -30.375 10.609375 -27.5625 C 8.078125 -24.75 6.78125 -21.347656 6.71875 -17.359375 C 6.71875 -13.242188 7.972656 -9.816406 10.484375 -7.078125 C 13.003906 -4.347656 16.164062 -2.96875 19.96875 -2.9375 C 24.113281 -2.9375 27.460938 -4.554688 30.015625 -7.796875 L 33.109375 -5.203125 C 30.066406 -1.140625 25.6875 0.890625 19.96875 0.890625 C 14.894531 0.890625 10.695312 -0.859375 7.375 -4.359375 C 4.0625 -7.859375 2.375 -12.191406 2.3125 -17.359375 C 2.3125 -22.523438 3.984375 -26.84375 7.328125 -30.3125 C 10.679688 -33.78125 14.894531 -35.546875 19.96875 -35.609375 Z M 19.96875 -35.609375 "/></g></g></g><g fill="#121212" fill-opacity="1"><g transform="translate(35.510591, 38.122804)"><g><path d="M 12.453125 -23.546875 C 15.785156 -23.546875 18.210938 -22.757812 19.734375 -21.1875 C 21.253906 -19.613281 22.035156 -17.242188 22.078125 -14.078125 L 22.078125 -3.78125 C 22.078125 -2.800781 22.191406 -1.539062 22.421875 0 L 18.734375 0 C 18.566406 -0.289062 18.484375 -1.4375 18.484375 -3.4375 L 18.390625 -3.4375 C 16.660156 -0.820312 14.144531 0.519531 10.84375 0.59375 C 8.320312 0.59375 6.269531 -0.0351562 4.6875 -1.296875 C 3.101562 -2.554688 2.3125 -4.203125 2.3125 -6.234375 C 2.3125 -9.003906 3.453125 -11.035156 5.734375 -12.328125 C 8.023438 -13.617188 11.609375 -14.265625 16.484375 -14.265625 L 18.25 -14.265625 L 18.25 -14.90625 C 18.25 -18.238281 16.351562 -19.941406 12.5625 -20.015625 C 9.8125 -20.015625 7.535156 -19.179688 5.734375 -17.515625 L 3.328125 -20.015625 C 5.679688 -22.296875 8.722656 -23.472656 12.453125 -23.546875 Z M 6.421875 -6.625 C 6.421875 -4.039062 8.109375 -2.71875 11.484375 -2.65625 C 13.472656 -2.65625 15.097656 -3.289062 16.359375 -4.5625 C 17.617188 -5.832031 18.25 -7.695312 18.25 -10.15625 L 18.25 -11.03125 L 14.03125 -11.03125 C 11.769531 -11.03125 9.941406 -10.671875 8.546875 -9.953125 C 7.160156 -9.234375 6.453125 -8.125 6.421875 -6.625 Z M 6.421875 -6.625 "/></g></g></g><g fill="#121212" fill-opacity="1"><g transform="translate(60.961776, 38.122804)"><g><path d="M 14.90625 -23.546875 C 15.5 -23.546875 16.023438 -23.460938 16.484375 -23.296875 L 16.234375 -19.421875 C 15.515625 -19.617188 14.828125 -19.71875 14.171875 -19.71875 C 11.953125 -19.71875 10.273438 -18.988281 9.140625 -17.53125 C 8.015625 -16.082031 7.453125 -14.03125 7.453125 -11.375 L 7.453125 0 L 3.625 0 L 3.625 -17.859375 C 3.625 -18.316406 3.5625 -20.015625 3.4375 -22.953125 L 7.0625 -22.953125 C 7.125 -20.660156 7.15625 -19.398438 7.15625 -19.171875 L 7.265625 -19.171875 C 7.878906 -20.484375 8.878906 -21.539062 10.265625 -22.34375 C 11.660156 -23.144531 13.207031 -23.546875 14.90625 -23.546875 Z M 14.90625 -23.546875 "/></g></g></g><g fill="#121212" fill-opacity="1"><g transform="translate(77.340621, 38.122804)"><g><path d="M 14.46875 -23.546875 C 16.238281 -23.546875 17.863281 -23.132812 19.34375 -22.3125 C 20.832031 -21.5 21.921875 -20.40625 22.609375 -19.03125 L 22.703125 -19.03125 L 22.703125 -22.953125 L 26.53125 -22.953125 L 26.53125 -0.78125 C 26.53125 3.132812 25.484375 6.1875 23.390625 8.375 C 21.296875 10.570312 18.175781 11.703125 14.03125 11.765625 C 11.769531 11.765625 9.722656 11.4375 7.890625 10.78125 C 6.066406 10.132812 4.351562 9.007812 2.75 7.40625 L 5.5 4.265625 C 7.945312 6.910156 10.789062 8.234375 14.03125 8.234375 C 19.8125 8.234375 22.703125 5.160156 22.703125 -0.984375 L 22.703125 -3.96875 L 22.609375 -3.96875 C 21.753906 -2.59375 20.578125 -1.535156 19.078125 -0.796875 C 17.578125 -0.0664062 16.039062 0.296875 14.46875 0.296875 C 10.9375 0.296875 8.039062 -0.804688 5.78125 -3.015625 C 3.53125 -5.222656 2.375 -8.046875 2.3125 -11.484375 C 2.3125 -15.171875 3.421875 -18.09375 5.640625 -20.25 C 7.859375 -22.414062 10.800781 -23.515625 14.46875 -23.546875 Z M 6.421875 -11.484375 C 6.421875 -9.191406 7.207031 -7.25 8.78125 -5.65625 C 10.351562 -4.070312 12.265625 -3.265625 14.515625 -3.234375 C 17.003906 -3.234375 18.988281 -4.035156 20.46875 -5.640625 C 21.957031 -7.242188 22.703125 -9.222656 22.703125 -11.578125 C 22.703125 -14.097656 21.941406 -16.125 20.421875 -17.65625 C 18.898438 -19.195312 16.914062 -19.984375 14.46875 -20.015625 C 12.144531 -20.015625 10.222656 -19.195312 8.703125 -17.5625 C 7.179688 -15.925781 6.421875 -13.898438 6.421875 -11.484375 Z M 6.421875 -11.484375 "/></g></g></g><g fill="#121212" fill-opacity="1"><g transform="translate(107.303379, 38.122804)"><g><path d="M 14.5625 -23.546875 C 18.125 -23.546875 21.035156 -22.441406 23.296875 -20.234375 C 25.554688 -18.023438 26.734375 -15.109375 26.828125 -11.484375 C 26.828125 -7.984375 25.679688 -5.113281 23.390625 -2.875 C 21.109375 -0.632812 18.164062 0.519531 14.5625 0.59375 C 10.96875 0.59375 8.039062 -0.539062 5.78125 -2.8125 C 3.53125 -5.09375 2.375 -7.984375 2.3125 -11.484375 C 2.3125 -15.015625 3.453125 -17.898438 5.734375 -20.140625 C 8.023438 -22.378906 10.96875 -23.515625 14.5625 -23.546875 Z M 6.421875 -11.484375 C 6.421875 -8.960938 7.179688 -6.925781 8.703125 -5.375 C 10.222656 -3.820312 12.175781 -3.007812 14.5625 -2.9375 C 16.945312 -2.9375 18.890625 -3.726562 20.390625 -5.3125 C 21.898438 -6.90625 22.671875 -8.960938 22.703125 -11.484375 C 22.703125 -13.960938 21.941406 -16.003906 20.421875 -17.609375 C 18.898438 -19.210938 16.929688 -20.015625 14.515625 -20.015625 C 12.160156 -20.015625 10.226562 -19.21875 8.71875 -17.625 C 7.21875 -16.039062 6.453125 -13.992188 6.421875 -11.484375 Z M 6.421875 -11.484375 "/></g></g></g><g fill="#121212" fill-opacity="1"><g transform="translate(136.432483, 38.122804)"><g><path d="M 7.265625 -37.078125 L 7.265625 -19.625 L 7.359375 -19.625 C 9.578125 -22.207031 12.320312 -23.515625 15.59375 -23.546875 C 19.226562 -23.546875 22.140625 -22.40625 24.328125 -20.125 C 26.515625 -17.851562 27.625 -14.972656 27.65625 -11.484375 C 27.65625 -8.078125 26.5625 -5.226562 24.375 -2.9375 C 22.1875 -0.65625 19.457031 0.519531 16.1875 0.59375 C 14.226562 0.59375 12.453125 0.164062 10.859375 -0.6875 C 9.273438 -1.539062 8.109375 -2.671875 7.359375 -4.078125 L 7.265625 -4.078125 L 7.265625 0 L 3.4375 0 L 3.4375 -37.078125 Z M 7.265625 -11.484375 C 7.265625 -8.960938 8.039062 -6.90625 9.59375 -5.3125 C 11.144531 -3.726562 13.082031 -2.9375 15.40625 -2.9375 C 17.789062 -2.9375 19.734375 -3.726562 21.234375 -5.3125 C 22.742188 -6.90625 23.515625 -8.960938 23.546875 -11.484375 C 23.546875 -13.960938 22.785156 -16.003906 21.265625 -17.609375 C 19.742188 -19.210938 17.773438 -20.015625 15.359375 -20.015625 C 13.003906 -20.015625 11.070312 -19.21875 9.5625 -17.625 C 8.0625 -16.039062 7.296875 -13.992188 7.265625 -11.484375 Z M 7.265625 -11.484375 "/></g></g></g><g fill="#121212" fill-opacity="1"><g transform="translate(166.395241, 38.122804)"><g><path d="M 7.796875 -37.078125 L 7.796875 0 L 3.96875 0 L 3.96875 -37.078125 Z M 7.796875 -37.078125 "/></g></g></g><g fill="#121212" fill-opacity="1"><g transform="translate(178.164575, 38.122804)"><g><path d="M 14.5625 -23.546875 C 18.125 -23.546875 21.035156 -22.441406 23.296875 -20.234375 C 25.554688 -18.023438 26.734375 -15.109375 26.828125 -11.484375 C 26.828125 -7.984375 25.679688 -5.113281 23.390625 -2.875 C 21.109375 -0.632812 18.164062 0.519531 14.5625 0.59375 C 10.96875 0.59375 8.039062 -0.539062 5.78125 -2.8125 C 3.53125 -5.09375 2.375 -7.984375 2.3125 -11.484375 C 2.3125 -15.015625 3.453125 -17.898438 5.734375 -20.140625 C 8.023438 -22.378906 10.96875 -23.515625 14.5625 -23.546875 Z M 6.421875 -11.484375 C 6.421875 -8.960938 7.179688 -6.925781 8.703125 -5.375 C 10.222656 -3.820312 12.175781 -3.007812 14.5625 -2.9375 C 16.945312 -2.9375 18.890625 -3.726562 20.390625 -5.3125 C 21.898438 -6.90625 22.671875 -8.960938 22.703125 -11.484375 C 22.703125 -13.960938 21.941406 -16.003906 20.421875 -17.609375 C 18.898438 -19.210938 16.929688 -20.015625 14.515625 -20.015625 C 12.160156 -20.015625 10.226562 -19.21875 8.71875 -17.625 C 7.21875 -16.039062 6.453125 -13.992188 6.421875 -11.484375 Z M 6.421875 -11.484375 "/></g></g></g><g fill="#121212" fill-opacity="1"><g transform="translate(207.29368, 38.122804)"><g><path d="M 14.5625 -23.546875 C 18.125 -23.546875 21.035156 -22.441406 23.296875 -20.234375 C 25.554688 -18.023438 26.734375 -15.109375 26.828125 -11.484375 C 26.828125 -7.984375 25.679688 -5.113281 23.390625 -2.875 C 21.109375 -0.632812 18.164062 0.519531 14.5625 0.59375 C 10.96875 0.59375 8.039062 -0.539062 5.78125 -2.8125 C 3.53125 -5.09375 2.375 -7.984375 2.3125 -11.484375 C 2.3125 -15.015625 3.453125 -17.898438 5.734375 -20.140625 C 8.023438 -22.378906 10.96875 -23.515625 14.5625 -23.546875 Z M 6.421875 -11.484375 C 6.421875 -8.960938 7.179688 -6.925781 8.703125 -5.375 C 10.222656 -3.820312 12.175781 -3.007812 14.5625 -2.9375 C 16.945312 -2.9375 18.890625 -3.726562 20.390625 -5.3125 C 21.898438 -6.90625 22.671875 -8.960938 22.703125 -11.484375 C 22.703125 -13.960938 21.941406 -16.003906 20.421875 -17.609375 C 18.898438 -19.210938 16.929688 -20.015625 14.515625 -20.015625 C 12.160156 -20.015625 10.226562 -19.21875 8.71875 -17.625 C 7.21875 -16.039062 6.453125 -13.992188 6.421875 -11.484375 Z M 6.421875 -11.484375 "/></g></g></g><g fill="#121212" fill-opacity="1"><g transform="translate(236.422784, 38.122804)"><g><path d="M 14.953125 -23.546875 C 18.453125 -23.546875 20.859375 -22.085938 22.171875 -19.171875 C 23.085938 -20.679688 24.113281 -21.785156 25.25 -22.484375 C 26.394531 -23.191406 27.804688 -23.546875 29.484375 -23.546875 C 32.453125 -23.546875 34.640625 -22.769531 36.046875 -21.21875 C 37.453125 -19.664062 38.15625 -17.316406 38.15625 -14.171875 L 38.15625 0 L 34.328125 0 L 34.328125 -13.875 C 34.328125 -17.894531 32.460938 -19.941406 28.734375 -20.015625 C 27.003906 -20.015625 25.582031 -19.367188 24.46875 -18.078125 C 23.363281 -16.785156 22.8125 -15.222656 22.8125 -13.390625 L 22.8125 0 L 18.984375 0 L 18.984375 -13.296875 C 18.984375 -15.546875 18.65625 -17.226562 18 -18.34375 C 17.34375 -19.457031 16.179688 -20.015625 14.515625 -20.015625 C 12.191406 -20.015625 10.429688 -19.238281 9.234375 -17.6875 C 8.046875 -16.132812 7.453125 -13.984375 7.453125 -11.234375 L 7.453125 0 L 3.625 0 L 3.625 -17.859375 C 3.59375 -18.992188 3.53125 -20.691406 3.4375 -22.953125 L 7.0625 -22.953125 C 7.125 -20.691406 7.15625 -19.429688 7.15625 -19.171875 L 7.265625 -19.171875 C 7.878906 -20.484375 8.875 -21.539062 10.25 -22.34375 C 11.625 -23.144531 13.191406 -23.546875 14.953125 -23.546875 Z M 14.953125 -23.546875 "/></g></g></g></g></g></g></g></g></g></svg>