<svg xmlns="http://www.w3.org/2000/svg" xmlns:xlink="http://www.w3.org/1999/xlink" width="500" zoomAndPan="magnify" viewBox="0 0 375 374.999991" height="500" preserveAspectRatio="xMidYMid meet" version="1.0"><defs><clipPath id="66d82d97eb"><path d="M 77.582031 58.183594 L 297.332031 58.183594 L 297.332031 316.933594 L 77.582031 316.933594 Z M 77.582031 58.183594 " clip-rule="nonzero"/></clipPath><clipPath id="eb35be691f"><path d="M 9 369 L 12 369 L 12 370.957031 L 9 370.957031 Z M 9 369 " clip-rule="nonzero"/></clipPath><clipPath id="9a7dd1e6d9"><path d="M 7.011719 364.957031 L 12 364.957031 L 12 370 L 7.011719 370 Z M 7.011719 364.957031 " clip-rule="nonzero"/></clipPath></defs><rect x="-37.5" width="450" fill="#ffffff" y="-37.499999" height="449.999989" fill-opacity="1"/><rect x="-37.5" width="450" fill="#00bf63" y="-37.499999" height="449.999989" fill-opacity="1"/><g clip-path="url(#66d82d97eb)"><path fill="#ffffff" d="M 297.414062 147.40625 L 297.414062 241.484375 L 193.964844 316.160156 L 193.964844 222.085938 Z M 77.582031 241.484375 L 181.03125 316.160156 L 181.03125 222.085938 L 77.582031 147.40625 Z M 129.304688 100.855469 L 82.105469 134.800781 L 187.496094 210.769531 L 234.695312 176.828125 Z M 292.886719 134.800781 L 187.496094 58.828125 L 140.296875 92.773438 L 245.6875 168.746094 Z M 292.886719 134.800781 " fill-opacity="1" fill-rule="nonzero"/></g><g clip-path="url(#eb35be691f)"><path fill="#00bf63" d="M 10.046875 369.789062 C 9.960938 369.984375 9.902344 370.191406 9.878906 370.410156 L 11.722656 370.019531 C 11.808594 369.828125 11.867188 369.617188 11.886719 369.398438 Z M 10.046875 369.789062 " fill-opacity="1" fill-rule="nonzero"/></g><g clip-path="url(#9a7dd1e6d9)"><path fill="#00bf63" d="M 11.722656 368.847656 C 11.808594 368.652344 11.867188 368.445312 11.886719 368.226562 L 10.453125 368.53125 L 10.453125 367.941406 L 11.722656 367.671875 C 11.808594 367.480469 11.867188 367.269531 11.886719 367.050781 L 10.453125 367.355469 L 10.453125 365.246094 C 10.234375 365.371094 10.039062 365.535156 9.878906 365.726562 L 9.878906 367.476562 L 9.304688 367.601562 L 9.304688 364.960938 C 9.085938 365.082031 8.890625 365.246094 8.730469 365.441406 L 8.730469 367.722656 L 7.449219 367.996094 C 7.359375 368.1875 7.300781 368.398438 7.28125 368.617188 L 8.730469 368.308594 L 8.730469 369.046875 L 7.175781 369.378906 C 7.089844 369.570312 7.03125 369.78125 7.011719 370 L 8.636719 369.65625 C 8.769531 369.628906 8.882812 369.550781 8.957031 369.441406 L 9.257812 369 C 9.289062 368.953125 9.304688 368.898438 9.304688 368.839844 L 9.304688 368.1875 L 9.878906 368.066406 L 9.878906 369.238281 Z M 11.722656 368.847656 " fill-opacity="1" fill-rule="nonzero"/></g></svg>